<svg width="35" height="25" xmlns="http://www.w3.org/2000/svg">

 <g>
  <title>background</title>
  <rect fill="none" id="canvas_background" height="27" width="37" y="-1" x="-1"/>
 </g>
 <g>
  <title>Layer 1</title>
  <g stroke="null" id="svg_15">
   <path stroke="null" id="svg_2" fill-rule="evenodd" clip-rule="evenodd" fill="#0A78A9" d="m34.098612,21.833309c0,0.608038 -0.496491,1.098198 -1.104529,1.098198l-30.821258,0c-0.608245,0 -1.104529,-0.49016 -1.104529,-1.098198l0,-18.44153c0,-0.601914 0.496285,-1.098198 1.104529,-1.098198l30.821327,0c0.608038,0 1.104529,0.496285 1.104529,1.098198l0,18.44153l-0.000069,0z"/>
   <path stroke="null" id="svg_3" fill-rule="evenodd" clip-rule="evenodd" fill="#FFFFFF" d="m11.312939,12.134632l0,-0.328586l-0.154969,0.328586l-1.371458,0l-0.167493,-0.353634l0,0.353634l-2.556568,0l-0.304019,-0.713667l-0.508946,0l-0.32253,0.713667l-1.321912,0l0,-2.159513l0.968072,-2.196328l1.861618,0l0.260529,0.620287l0,-0.614369l2.271197,0l0.502684,1.048997l0.49016,-1.054915l7.179199,0c0,0 0.378613,-0.0064 0.626687,0.167493l0,-0.167493l1.80581,0l0,0.235756c0,0 0.328998,-0.235756 0.806979,-0.235756c0.483692,0 3.195641,0 3.195641,0l0.27904,0.632605l0,-0.632605l2.041566,0l0.372282,0.632605l0,-0.632605l1.954723,0l0,4.355841l-2.004338,0l-0.471512,-0.756951l0,0.756951l-2.500829,0l-0.353634,-0.78193l-0.484242,0l-0.328586,0.78193l-1.51404,0c0,0 -0.564892,-0.006468 -0.986651,-0.310006c0,0.154762 0,0.310006 0,0.310006l-3.009637,0c0,0 0,-0.868842 0,-1.017686c0,-0.148775 -0.111685,-0.136526 -0.111685,-0.136526l-0.111822,0l0,1.154213l-6.031317,0z"/>
   <path stroke="null" id="svg_4" fill-rule="evenodd" clip-rule="evenodd" fill="#FFFFFF" d="m9.811286,13.078l3.952661,0l0.570948,0.645404l0.583472,-0.645404l3.04026,0c0,0 0.285577,0.005918 0.558561,0.148844l0,-0.148844c0,0 2.364371,0 2.705618,0c0.347303,0 0.633018,0.173479 0.633018,0.173479l0,-0.173479l3.481149,0l0,0.161093c0,0 0.248005,-0.161093 0.577003,-0.161093c0.335054,0 2.270991,0 2.270991,0l0,0.161093c0,0 0.285439,-0.161093 0.58354,-0.161093c0.304019,0 1.780831,0 1.780831,0l0,4.107836c0,0 -0.235756,0.266653 -0.719998,0.266653l-2.345585,0l0,-0.130264c0,0 -0.223507,0.130264 -0.564892,0.130264c-0.334916,0 -6.229914,0 -6.229914,0s0,-0.955754 0,-1.061314c0,-0.105147 -0.043284,-0.123865 -0.136526,-0.123865l-0.086843,0l0,1.185179l-1.948392,0l0,-1.179192c0,0 -0.217176,0.117878 -0.577003,0.117878c-0.360033,0 -0.701281,0 -0.701281,0l0,1.061314l-2.401324,0l-0.545968,-0.669971l-0.583472,0.669971l-3.896853,0l0,-4.374489z"/>
   <polygon stroke="null" id="svg_5" fill-rule="evenodd" clip-rule="evenodd" fill="#0A78A9" points="22.271389365196228,13.735494375228882 24.753502249717712,13.735494375228882 24.753502249717712,14.399481534957886 23.03453290462494,14.399481534957886 23.03453290462494,14.976550817489624 24.70395314693451,14.976550817489624 24.70395314693451,15.565935850143433 23.03453290462494,15.565935850143433 23.03453290462494,16.173980474472046 24.753502249717712,16.173980474472046 24.753502249717712,16.825709104537964 22.271389365196228,16.825709104537964 "/>
   <path stroke="null" id="svg_6" fill-rule="evenodd" clip-rule="evenodd" fill="#0A78A9" d="m29.550299,14.939342c0.930706,0.043215 1.004956,0.515208 1.004956,1.0117c0,0.57659 -0.471512,0.887078 -0.968072,0.887078l-1.594689,0l0,-0.664053l1.241056,0c0.211121,0 0.521058,0 0.521058,-0.297619c0,-0.136458 -0.049477,-0.229769 -0.278902,-0.254404c-0.099161,-0.012318 -0.465594,-0.030966 -0.521608,-0.030966c-0.843794,-0.024979 -1.036266,-0.446876 -1.036266,-0.955685c0,-0.577072 0.403593,-0.893822 0.900221,-0.893822l1.594689,0l0,0.664053l-1.166874,0c-0.266791,0 -0.552093,-0.030966 -0.552093,0.267066c0,0.186141 0.142444,0.229425 0.322668,0.242156c0.062001,-0.000069 0.477843,0.024498 0.533857,0.024498l0,0z"/>
   <path stroke="null" id="svg_7" fill-rule="evenodd" clip-rule="evenodd" fill="#0A78A9" d="m26.689574,14.939342c0.930568,0.043215 1.011218,0.515208 1.011218,1.0117c0,0.57659 -0.477911,0.887078 -0.97399,0.887078l-1.594689,0l0,-0.664053l1.246974,0c0.204858,0 0.521608,0 0.521608,-0.297619c0,-0.136458 -0.056014,-0.229769 -0.279453,-0.254404c-0.099298,-0.012318 -0.471512,-0.030966 -0.521195,-0.030966c-0.844207,-0.024979 -1.042528,-0.446876 -1.042528,-0.955685c0,-0.577072 0.409511,-0.893822 0.906002,-0.893822l1.594827,0l0,0.664053l-1.166874,0c-0.266653,0 -0.552093,-0.030966 -0.552093,0.267066c0,0.186141 0.142995,0.229425 0.322668,0.242156c0.061932,-0.000069 0.471512,0.024498 0.527526,0.024498l0,0z"/>
   <path stroke="null" id="svg_8" fill-rule="evenodd" clip-rule="evenodd" fill="#0A78A9" d="m17.691766,13.741502l-2.661922,0l-0.868636,0.955754l-0.844069,-0.961672l-2.990714,0l0,3.09015l2.891553,0l0.912057,-1.023948l0.893615,1.030279l1.45197,0l0,-1.048928l1.024017,0c0.390931,0 1.110654,-0.012318 1.110654,-1.098198c0,-0.769475 -0.546243,-0.943436 -0.918526,-0.943436l0,0zm-4.864787,2.432565l-1.749796,0l0,-0.608038l1.669008,0l0,-0.589321l-1.669008,0l0,-0.577141l1.842969,0.006056l0.738371,0.837738l-0.831545,0.930706zm2.898022,0.360033l-1.09228,-1.290808l1.09228,-1.20369l0,2.494498zm1.712499,-1.389969l-0.949423,0l0,-0.738509l0.949423,0c0.316474,0 0.421828,0.198803 0.421828,0.354047c0.000069,0.20479 -0.111478,0.384462 -0.421828,0.384462l0,0z"/>
   <path stroke="null" id="svg_9" fill-rule="evenodd" clip-rule="evenodd" fill="#0A78A9" d="m21.359331,15.423585c0.415566,-0.20479 0.521058,-0.484173 0.521058,-0.856387c0,-0.664053 -0.533444,-0.825627 -0.905589,-0.825627l-1.973716,0l0,3.090562l0.757089,0l0,-1.092143l0.99312,0c0.260322,0 0.365951,0.260735 0.372282,0.527388l0.018649,0.564754l0.738165,0l-0.024567,-0.633018c0,-0.502822 -0.136526,-0.732247 -0.496491,-0.775531l0,0zm-0.657997,-0.316681l-0.943092,0l0,-0.701281l0.949354,0c0.316818,0 0.415979,0.198803 0.415979,0.354047c0,0.20479 -0.11196,0.347234 -0.422241,0.347234l0,0z"/>
   <rect stroke="null" id="svg_10" fill-rule="evenodd" clip-rule="evenodd" fill="#0A78A9" y="8.399079" x="19.305242" width="0.756951" height="3.09015"/>
   <polygon stroke="null" id="svg_11" fill-rule="evenodd" clip-rule="evenodd" fill="#0A78A9" points="13.087646842002869,8.399000406265259 15.569759726524353,8.399000406265259 15.569759726524353,9.069377660751343 13.85085904598236,9.069377660751343 13.85085904598236,9.646313428878784 15.520144820213318,9.646313428878784 15.520144820213318,10.229373693466187 13.85085904598236,10.229373693466187 13.85085904598236,10.843806982040405 15.569759726524353,10.843806982040405 15.569759726524353,11.489143133163452 13.087646842002869,11.489143133163452 "/>
   <path stroke="null" id="svg_12" fill-rule="evenodd" clip-rule="evenodd" fill="#0A78A9" d="m18.380591,10.087011c0.415841,-0.211121 0.521333,-0.484173 0.521333,-0.856456c0,-0.663984 -0.533719,-0.831476 -0.906139,-0.831476l-1.972959,0l0,3.09015l0.756813,0l0,-1.085812l0.992913,0c0.260598,0 0.365951,0.260735 0.37242,0.521058l0.018442,0.564754l0.738509,0l-0.024979,-0.632605c0,-0.496491 -0.136526,-0.732247 -0.496353,-0.769613l0,0zm-0.65779,-0.322668l-0.94323,0l0,-0.701281l0.949492,0c0.316268,0 0.415841,0.20479 0.415841,0.353634c0.000069,0.211121 -0.111754,0.347647 -0.422103,0.347647l0,0z"/>
   <path stroke="null" id="svg_13" fill-rule="evenodd" clip-rule="evenodd" fill="#0A78A9" d="m11.337712,8.399079l-0.930637,2.072532l-0.924581,-2.072532l-1.191441,0l0,2.978602l-1.327761,-2.978602l-1.005369,0l-1.352809,3.09015l0.806703,0l0.29177,-0.68855l1.514109,0l0.304019,0.68855l1.526495,0l0,-2.289639l1.017549,2.289639l0.688825,0l1.036266,-2.252274l0,2.252274l0.757089,0l0,-3.09015l-1.210227,0zm-5.348823,1.737547l0.45307,-1.079894l0.471512,1.079894l-0.924581,0z"/>
   <path stroke="null" id="svg_14" fill-rule="evenodd" clip-rule="evenodd" fill="#0A78A9" d="m27.893264,8.399079l0,2.140864l-1.278422,-2.140864l-1.123178,0l0,2.904008l-1.29067,-2.904008l-1.004956,0l-1.048997,2.395268c0,0 -0.440408,0 -0.483692,-0.012318c-0.186141,-0.037366 -0.471512,-0.167493 -0.471512,-0.707199l0,-0.229838c0,-0.719585 0.391,-0.775531 0.89334,-0.775531l0.471512,0l0,-0.670383l-0.992569,0c-0.341385,0 -1.09228,0.260804 -1.116847,1.532757c-0.018649,0.856456 0.353634,1.563792 1.191097,1.563792l1.0053,0l0.297551,-0.69495l1.51459,0l0.297688,0.69495l1.49546,0l0,-2.265073l1.365264,2.265073l1.036266,0l0,-3.096549l-0.757226,0l0,0zm-4.660204,1.737547l0.453207,-1.079894l0.471512,1.079894l-0.924719,0z"/>
  </g>
 </g>
</svg>