<svg width="35" height="25" xmlns="http://www.w3.org/2000/svg">

 <g>
  <title>background</title>
  <rect fill="none" id="canvas_background" height="27" width="37" y="-1" x="-1"/>
 </g>
 <g>
  <title>Layer 1</title>
  <g stroke="null" id="svg_11">
   <path stroke="null" id="svg_1" fill="#F9F9F9" d="m31.425025,23.239947l-27.943315,0c-1.175414,0 -2.128323,-0.952909 -2.128323,-2.128323l0,-16.607551c0,-1.17552 0.952909,-2.128323 2.128323,-2.128323l27.943306,0c1.17552,0 2.128323,0.952803 2.128323,2.128323l0,16.607551c0.00001,1.175414 -0.952793,2.128323 -2.128313,2.128323z"/>
   <path stroke="#303030" id="svg_2" fill="none" stroke-width="0.8" stroke-linecap="round" stroke-linejoin="round" stroke-miterlimit="10" d="m31.425025,23.239947l-27.943315,0c-1.175414,0 -2.128323,-0.952909 -2.128323,-2.128323l0,-16.607551c0,-1.17552 0.952909,-2.128323 2.128323,-2.128323l27.943306,0c1.17552,0 2.128323,0.952803 2.128323,2.128323l0,16.607551c0.00001,1.175414 -0.952793,2.128323 -2.128313,2.128323z"/>
   <path stroke="null" id="svg_3" fill="#303030" d="m4.305866,14.926014c0,-1.421288 0,-2.826762 0,-4.236746c0.016449,-0.00398 0.031424,-0.011101 0.046515,-0.010995c0.469535,0.003353 0.940651,-0.015505 1.408298,0.016449c0.749358,0.051227 1.377712,0.355874 1.758939,1.03053c0.750717,1.32847 -0.068515,2.989252 -1.552767,3.165145c-0.373258,0.044 -0.753646,0.026818 -1.130894,0.03499c-0.173379,0.003662 -0.346864,0.000626 -0.530091,0.000626zm0.833378,-0.727985c0.156833,0 0.304752,0.007854 0.451621,-0.001677c0.326858,-0.021162 0.63506,-0.098793 0.889318,-0.324343c0.583833,-0.518151 0.616828,-1.501954 0.071339,-2.06452c-0.393697,-0.406051 -0.895707,-0.414858 -1.412278,-0.402803c0,0.933414 0,1.858242 0,2.793343z"/>
   <path stroke="null" id="svg_4" fill="#303030" d="m27.810657,10.686233c0.015823,-0.003768 0.025035,-0.00796 0.034364,-0.007854c0.469429,0.003247 0.939283,-0.001156 1.408404,0.014879c0.164369,0.005657 0.332409,0.045156 0.489965,0.096798c0.534697,0.17495 0.831808,0.634636 0.796394,1.197732c-0.020217,0.321298 -0.101616,0.613899 -0.34299,0.844267c-0.148854,0.141954 -0.327591,0.227015 -0.522545,0.283167c-0.028283,0.008066 -0.056566,0.015505 -0.097222,0.026606c0.443035,0.592737 0.881358,1.179297 1.333606,1.784186c-0.202192,0 -0.381333,0 -0.560368,0c-0.124879,0 -0.249854,-0.004086 -0.374308,0.001571c-0.068303,0.003141 -0.105914,-0.022732 -0.142475,-0.077737c-0.345505,-0.519298 -0.694247,-1.036187 -1.040697,-1.554858c-0.035308,-0.052904 -0.068197,-0.09806 -0.152834,-0.064217c0,0.556495 0,1.119272 0,1.688535c-0.282656,0 -0.553141,0 -0.829302,0c0.00001,-1.411131 0.00001,-2.818802 0.00001,-4.233075zm0.830131,1.947813c0.260126,0.000212 0.516995,0.016652 0.751873,-0.113459c0.216338,-0.119954 0.292909,-0.316904 0.290192,-0.553449c-0.002611,-0.227854 -0.08905,-0.409934 -0.298036,-0.51658c-0.235091,-0.120051 -0.488182,-0.103717 -0.74402,-0.094803c-0.00001,0.428369 -0.00001,0.847621 -0.00001,1.278293z"/>
   <path stroke="null" id="svg_5" fill="#303030" d="m24.918628,10.682253c0.779944,0 1.5535,0 2.334909,0c0,0.239061 0,0.473409 0,0.716459c-0.498869,0 -0.996803,0 -1.502687,0c0,0.314803 0,0.621126 0,0.938868c0.48054,0 0.958363,0 1.4435,0c0,0.245247 0,0.479075 0,0.722636c-0.481995,0 -0.959924,0 -1.444444,0c0,0.382586 0,0.755535 0,1.14053c0.50201,0 1.002257,0 1.506667,0c0,0.244197 0,0.476242 0,0.716777c-0.77952,0 -1.555167,0 -2.337954,0c0.00001,-1.408404 0.00001,-2.815661 0.00001,-4.235272z"/>
   <path stroke="null" id="svg_6" fill="#303030" d="m12.105318,11.085788c-0.146349,0.191081 -0.287359,0.375146 -0.431828,0.563616c-0.158606,-0.169081 -0.326222,-0.305379 -0.553873,-0.334394c-0.227854,-0.028909 -0.441146,0.008278 -0.610439,0.177783c-0.182707,0.182707 -0.161439,0.455505 0.057096,0.59106c0.146455,0.090717 0.312288,0.150434 0.469333,0.224086c0.239899,0.112823 0.488076,0.211202 0.71803,0.341939c0.332409,0.188884 0.482217,0.494686 0.497298,0.874025c0.020015,0.501914 -0.131894,0.926717 -0.548111,1.230207c-0.313965,0.22901 -0.674975,0.293015 -1.056096,0.270601c-0.580065,-0.03394 -1.006025,-0.32203 -1.314333,-0.783924c0.170873,-0.182803 0.337959,-0.361318 0.49856,-0.533126c0.103929,0.119848 0.186369,0.240641 0.293227,0.333035c0.23854,0.206278 0.522237,0.273636 0.828656,0.197576c0.311141,-0.077207 0.49803,-0.379232 0.432666,-0.675187c-0.034046,-0.154 -0.12351,-0.271439 -0.261061,-0.340369c-0.155041,-0.077525 -0.318687,-0.138081 -0.478651,-0.205748c-0.172126,-0.072707 -0.348425,-0.136924 -0.515424,-0.219894c-0.534899,-0.265879 -0.698757,-0.729873 -0.546425,-1.30857c0.12748,-0.483894 0.569475,-0.822692 1.116005,-0.871086c0.514904,-0.045783 0.973126,0.102561 1.371843,0.432454c0.009954,0.008046 0.017712,0.018839 0.033525,0.035915z"/>
   <path stroke="null" id="svg_7" fill="#303030" d="m20.467336,10.677743c0.290288,0 0.572096,-0.002409 0.853692,0.003768c0.026298,0.00052 0.061808,0.050389 0.07553,0.084434c0.292803,0.731126 0.582783,1.463621 0.873707,2.195681c0.071454,0.179874 0.143631,0.359439 0.222313,0.556283c0.020102,-0.044626 0.03498,-0.075116 0.047662,-0.106232c0.355247,-0.883237 0.710812,-1.766166 1.064055,-2.649924c0.023783,-0.059293 0.050177,-0.087576 0.119848,-0.086217c0.265783,0.004606 0.531767,0.001889 0.813151,0.001889c-0.016025,0.042111 -0.027339,0.074692 -0.040637,0.106232c-0.584787,1.388505 -1.170181,2.776479 -1.752762,4.165716c-0.027657,0.066106 -0.061394,0.088732 -0.130323,0.084752c-0.094919,-0.005551 -0.190975,0.003671 -0.285576,-0.004086c-0.03341,-0.002727 -0.081823,-0.029748 -0.093551,-0.058146c-0.589066,-1.415005 -1.174788,-2.831474 -1.760606,-4.247953c-0.003565,-0.00848 -0.002833,-0.018849 -0.006505,-0.046197z"/>
   <path stroke="null" id="svg_8" fill="#303030" d="m15.792489,11.805813c-0.133359,-0.099939 -0.247232,-0.200515 -0.375146,-0.278348c-0.493424,-0.300454 -1.127328,-0.230157 -1.572358,0.165939c-0.664394,0.591475 -0.63349,1.745843 0.060767,2.28054c0.52056,0.400924 1.246444,0.380389 1.743328,-0.049445c0.041697,-0.036146 0.083182,-0.072707 0.143631,-0.125293c0,0.063379 0,0.107273 0,0.151273c-0.000106,0.249748 -0.001359,0.499399 0.001156,0.749252c0.00052,0.05301 -0.015929,0.080985 -0.065374,0.104652c-1.013772,0.483788 -2.256237,0.153788 -2.859661,-0.778798c-0.832848,-1.287197 -0.173803,-3.046974 1.424439,-3.391949c0.494166,-0.106434 0.973752,-0.053424 1.427889,0.177985c0.029439,0.014985 0.067889,0.051227 0.068303,0.078258c0.004809,0.301399 0.003026,0.603116 0.003026,0.915934z"/>
   <path stroke="null" id="svg_9" fill="#FF6F00" d="m20.451725,12.805545c0.018974,1.129949 -0.911106,2.052474 -2.089979,2.050701c-1.186727,-0.001783 -2.098045,-0.885232 -2.091338,-2.074686c0.006601,-1.123146 0.929752,-2.008474 2.092176,-2.015605c1.184125,-0.007227 2.107999,0.923151 2.089141,2.03959z"/>
   <path stroke="null" id="svg_10" fill="#303030" d="m9.003975,14.920666c-0.275631,0 -0.543495,0 -0.818182,0c0,-1.412596 0,-2.819853 0,-4.235175c0.271854,0 0.541722,0 0.818182,0c0,1.409772 0,2.817135 0,4.235175z"/>
  </g>
 </g>
</svg>