<svg width="35" height="25" xmlns="http://www.w3.org/2000/svg">

 <g>
  <title>background</title>
  <rect fill="none" id="canvas_background" height="27" width="37" y="-1" x="-1"/>
 </g>
 <g>
  <title>Layer 1</title>
  <g stroke="null" id="svg_26">
   <path stroke="null" fill="#dfdfe0" clip-rule="evenodd" fill-rule="evenodd" id="svg_2" d="m32.430886,2.232248l-30.053564,0c-0.58525,0 -0.951836,0.090038 -1.151206,0.276547c-0.173646,0.212234 -0.257253,0.559525 -0.257253,1.074031l0,1.922965l0,1.549948l0,11.081166l0,1.620693l0,1.85222c0,0.919679 0.475918,1.395597 1.408459,1.395597l30.053564,0c0.977561,0 1.466341,-0.475918 1.466341,-1.395597l0,-1.85222l0,-1.620693l0,-11.087598l0,-1.549948l0,-1.922965c0,-0.906816 -0.48878,-1.344146 -1.466341,-1.344146z" class="st0"/>
   <path stroke="null" fill="#fcb131" clip-rule="evenodd" fill-rule="evenodd" id="svg_4" d="m17.433045,18.085455c1.299127,1.189794 3.029152,1.910102 4.919961,1.910102c4.051732,0 7.331706,-3.305699 7.331706,-7.376725c0,-4.077458 -3.286405,-7.376725 -7.331706,-7.376725c-1.89724,0 -3.620834,0.720308 -4.919961,1.910102c-1.479204,1.350577 -2.411745,3.299268 -2.411745,5.466623c0,2.167355 0.932542,4.122477 2.411745,5.466623l0,0z" class="st1"/>
   <path stroke="null" fill="#fcb131" clip-rule="evenodd" fill-rule="evenodd" id="svg_5" d="m28.713582,16.734877c0,-0.135058 0.109332,-0.237959 0.237959,-0.237959c0.128626,0 0.237959,0.109332 0.237959,0.237959c0,0.128626 -0.102901,0.237959 -0.237959,0.237959c-0.135058,0 -0.237959,-0.109332 -0.237959,-0.237959l0,0zm0.237959,0.180077c0.102901,0 0.180077,-0.083607 0.180077,-0.180077c0,-0.102901 -0.083607,-0.180077 -0.180077,-0.180077c-0.09647,0 -0.180077,0.083607 -0.180077,0.180077c0,0.09647 0.077176,0.180077 0.180077,0.180077l0,0zm-0.032157,-0.077176l-0.051451,0l0,-0.212234l0.090038,0c0.019294,0 0.038588,0 0.051451,0.012863c0.019294,0.012863 0.025725,0.032157 0.025725,0.051451c0,0.025725 -0.012863,0.045019 -0.038588,0.051451l0.038588,0.090038l-0.051451,0l-0.032157,-0.083607l-0.038588,0l0,0.090038l0,-0.115764l0.025725,0c0.012863,0 0.019294,0 0.032157,-0.006431c0.006431,-0.006431 0.012863,-0.012863 0.012863,-0.025725c0,-0.006431 -0.006431,-0.019294 -0.012863,-0.019294c-0.006431,-0.006431 -0.019294,-0.006431 -0.032157,-0.006431l-0.025725,0l0,0.051451l0,0.122195l0.006431,0z" class="st1"/>
   <path stroke="null" fill="#ed1b2e" clip-rule="evenodd" fill-rule="evenodd" id="svg_6" d="m19.806202,11.83421c-0.025725,-0.263684 -0.070745,-0.527368 -0.122195,-0.77819l-4.489062,0c0.057882,-0.263684 0.128626,-0.527368 0.212234,-0.77819l4.064595,0c-0.090038,-0.270115 -0.19294,-0.527368 -0.308703,-0.784621l-3.440757,0c0.128626,-0.270115 0.270115,-0.527368 0.424467,-0.77819l2.598254,0c-0.167214,-0.270115 -0.353723,-0.5338 -0.559525,-0.77819l-1.479204,0c0.225096,-0.276547 0.475918,-0.540231 0.739602,-0.77819c-1.299127,-1.189794 -3.029152,-1.910102 -4.919961,-1.910102c-4.051732,0 -7.331706,3.305699 -7.331706,7.376725c0,4.077458 3.286405,7.376725 7.331706,7.376725c1.89724,0 3.620834,-0.720308 4.919961,-1.910102l0,0l0,0c0.263684,-0.24439 0.514506,-0.501643 0.739602,-0.77819l-1.479204,0c-0.199371,-0.24439 -0.385879,-0.508074 -0.559525,-0.77819l2.598254,0c0.154352,-0.250822 0.295841,-0.514506 0.424467,-0.77819l-3.440757,0c-0.115764,-0.250822 -0.225096,-0.514506 -0.315135,-0.77819l4.064595,0c0.083607,-0.257253 0.154352,-0.514506 0.212234,-0.77819c0.057882,-0.257253 0.09647,-0.514506 0.122195,-0.784621c0.025725,-0.257253 0.038588,-0.514506 0.038588,-0.77819c-0.006431,-0.282978 -0.019294,-0.546662 -0.045019,-0.803915l0,0z" class="st2"/>
   <path stroke="null" fill="#ffffff" clip-rule="evenodd" fill-rule="evenodd" id="svg_7" d="m28.713582,14.329563c0,-0.128626 0.109332,-0.237959 0.237959,-0.237959c0.128626,0 0.237959,0.109332 0.237959,0.237959c0,0.128626 -0.102901,0.237959 -0.237959,0.237959c-0.135058,0 -0.237959,-0.102901 -0.237959,-0.237959l0,0zm0.237959,0.180077c0.102901,0 0.180077,-0.083607 0.180077,-0.180077c0,-0.102901 -0.083607,-0.180077 -0.180077,-0.180077c-0.09647,0 -0.180077,0.083607 -0.180077,0.180077c0,0.102901 0.077176,0.180077 0.180077,0.180077l0,0zm-0.032157,-0.077176l-0.051451,0l0,-0.205802l0.090038,0c0.019294,0 0.038588,0 0.051451,0.012863c0.019294,0.012863 0.025725,0.032157 0.025725,0.051451c0,0.025725 -0.012863,0.045019 -0.038588,0.051451l0.038588,0.090038l-0.051451,0l-0.032157,-0.083607l-0.038588,0l0,0.083607l0,-0.115764l0.025725,0c0.012863,0 0.019294,0 0.032157,-0.006431c0.006431,-0.006431 0.012863,-0.012863 0.012863,-0.025725c0,-0.006431 -0.006431,-0.019294 -0.012863,-0.019294c-0.006431,-0.006431 -0.019294,-0.006431 -0.032157,-0.006431l-0.025725,0l0,0.051451l0,0.122195l0.006431,0z" class="st3"/>
   <path stroke="null" fill="#003473" clip-rule="evenodd" fill-rule="evenodd" id="svg_8" d="m14.937692,14.747599c-0.24439,0.070745 -0.418036,0.09647 -0.598113,0.09647c-0.373017,0 -0.604544,-0.237959 -0.604544,-0.668857c0,-0.083607 0.006431,-0.173646 0.025725,-0.270115l0.045019,-0.295841l0.038588,-0.237959l0.347291,-2.077317l0.765327,0l-0.090038,0.450192l0.475918,0l-0.115764,0.765327l-0.482349,0l-0.205802,1.241245c-0.006431,0.057882 -0.012863,0.09647 -0.012863,0.128626c0,0.154352 0.083607,0.225096 0.270115,0.225096c0.090038,0 0.160783,-0.006431 0.24439,-0.025725l-0.102901,0.668857l0,0z" class="st4"/>
   <path stroke="null" fill="#003473" clip-rule="evenodd" fill-rule="evenodd" id="svg_9" d="m17.400888,14.721874c-0.270115,0.083607 -0.5338,0.122195 -0.816778,0.122195c-0.848934,0 -1.350577,-0.469486 -1.350577,-1.36344c0,-1.041874 0.591682,-1.813633 1.389165,-1.813633c0.655995,0 1.074031,0.430899 1.074031,1.106187c0,0.225096 -0.025725,0.443761 -0.09647,0.752465l-1.582105,0c-0.006431,0.045019 -0.006431,0.070745 -0.006431,0.09647c0,0.353723 0.237959,0.5338 0.701014,0.5338c0.282978,0 0.540231,-0.057882 0.82964,-0.19294l-0.141489,0.758896l0,0zm-0.475918,-1.813633c0.006431,-0.064313 0.006431,-0.115764 0.006431,-0.154352c0,-0.24439 -0.141489,-0.392311 -0.379448,-0.392311c-0.250822,0 -0.43733,0.19294 -0.508074,0.546662l0.881091,0l0,0z" class="st4"/>
   <polygon stroke="null" fill="#003473" clip-rule="evenodd" fill-rule="evenodd" id="svg_10" points="8.866524934906693,14.786365589336924 8.069040866667933,14.786365589336924 8.52566389771323,11.911553075491952 7.503084240138719,14.786365589336924 6.962853542816447,14.786365589336924 6.898540446802031,11.92442171453365 6.416191486549792,14.786365589336924 5.6444328540885635,14.786365589336924 6.268271217687811,11.043328499729682 7.413046201776183,11.043328499729682 7.445202996498097,13.365041183781273 8.216961135529914,11.043328499729682 9.477501074046586,11.043328499729682 8.866524934906693,14.786365589336924 " class="st4"/>
   <path stroke="null" fill="#003473" clip-rule="evenodd" fill-rule="evenodd" id="svg_11" d="m10.776627,13.429178c-0.083607,-0.012863 -0.09647,-0.012863 -0.154352,-0.012863c-0.450192,0 -0.68172,0.173646 -0.68172,0.463055c0,0.186508 0.109332,0.308703 0.282978,0.308703c0.385879,0.006431 0.540231,-0.308703 0.553094,-0.758896l0,0zm0.630269,1.357009l-0.688151,0l0.012863,-0.315135c-0.173646,0.237959 -0.411605,0.366585 -0.836072,0.366585c-0.385879,0 -0.707445,-0.34086 -0.707445,-0.82964c0,-0.14792 0.025725,-0.276547 0.057882,-0.398742c0.128626,-0.469486 0.598113,-0.765327 1.318421,-0.77819c0.090038,0 0.231528,0 0.347291,0.012863c0.025725,-0.102901 0.032157,-0.141489 0.032157,-0.199371c0,-0.199371 -0.167214,-0.263684 -0.5338,-0.263684c-0.225096,0 -0.482349,0.038588 -0.655995,0.090038l-0.109332,0.032157l-0.045019,0.012863l0.109332,-0.68172c0.373017,-0.115764 0.630269,-0.160783 0.92611,-0.160783c0.68172,0 1.048305,0.308703 1.048305,0.893954c0,0.14792 0.012863,0.263684 -0.038588,0.604544l-0.167214,1.080462l-0.025725,0.19294l-0.019294,0.154352l-0.012863,0.102901l-0.012863,0.083607l0,0z" class="st4"/>
   <path stroke="null" fill="#003473" clip-rule="evenodd" fill-rule="evenodd" id="svg_12" d="m21.227524,11.769897c0.218665,0 0.424467,0.057882 0.713877,0.199371l0.128626,-0.810346c-0.070745,-0.032157 -0.090038,-0.038588 -0.19294,-0.070745l-0.327997,-0.083607c-0.102901,-0.025725 -0.218665,-0.038588 -0.353723,-0.038588c-0.392311,0 -0.623838,0.006431 -0.868228,0.154352c-0.128626,0.077176 -0.289409,0.19294 -0.475918,0.398742l-0.09647,-0.032157l-0.810346,0.578819l0.038588,-0.327997l-0.842503,0l-0.482349,3.042015l0.797484,0l0.289409,-1.639987c0,0 0.115764,-0.225096 0.167214,-0.295841c0.14792,-0.199371 0.276547,-0.199371 0.443761,-0.19294c0.019294,0 0.045019,0 0.057882,0c-0.025725,0.180077 -0.038588,0.373017 -0.038588,0.578819c0,0.996855 0.559525,1.614262 1.421322,1.614262c0.218665,0 0.411605,-0.032157 0.701014,-0.109332l0.141489,-0.855366c-0.263684,0.128626 -0.482349,0.19294 -0.675289,0.19294c-0.463055,0 -0.739602,-0.34086 -0.739602,-0.913248c-0.006431,-0.810346 0.411605,-1.389165 1.003286,-1.389165l0,0z" class="st4"/>
   <path stroke="null" fill="#003473" clip-rule="evenodd" fill-rule="evenodd" id="svg_13" d="m27.954686,11.043158l-0.173646,1.067599c-0.19294,-0.289409 -0.418036,-0.424467 -0.726739,-0.424467c-0.418036,0 -0.803915,0.237959 -1.041874,0.688151l0,-0.006431l-0.508074,-0.302272l0.038588,-0.327997l-0.842503,0l-0.482349,3.042015l0.797484,0l0.263684,-1.639987c0,0 0.205802,-0.225096 0.257253,-0.295841c0.115764,-0.154352 0.24439,-0.186508 0.353723,-0.19294c-0.090038,0.257253 -0.14792,0.559525 -0.14792,0.906816c0,0.758896 0.392311,1.26697 0.971129,1.26697c0.289409,0 0.514506,-0.102901 0.733171,-0.34086l-0.038588,0.295841l0.752465,0l0.604544,-3.743029l-0.810346,0l0,0.006431zm-0.971129,3.029152c-0.270115,0 -0.411605,-0.199371 -0.411605,-0.598113c0,-0.598113 0.257253,-1.02258 0.617407,-1.02258c0.276547,0 0.424467,0.212234 0.424467,0.598113c0,0.598113 -0.257253,1.02258 -0.630269,1.02258l0,0z" class="st4"/>
   <path stroke="null" fill="#003473" clip-rule="evenodd" fill-rule="evenodd" id="svg_14" d="m23.317703,13.429178c-0.083607,-0.012863 -0.09647,-0.012863 -0.154352,-0.012863c-0.450192,0 -0.68172,0.173646 -0.68172,0.463055c0,0.186508 0.109332,0.308703 0.282978,0.308703c0.385879,0.006431 0.540231,-0.308703 0.553094,-0.758896l0,0zm0.630269,1.357009l-0.688151,0l0.012863,-0.315135c-0.173646,0.237959 -0.411605,0.366585 -0.836072,0.366585c-0.385879,0 -0.733171,-0.334429 -0.733171,-0.836072c0.006431,-0.720308 0.540231,-1.1705 1.402028,-1.1705c0.090038,0 0.231528,0 0.353723,0.012863c0.025725,-0.102901 0.032157,-0.141489 0.032157,-0.199371c0,-0.199371 -0.167214,-0.263684 -0.5338,-0.263684c-0.225096,0 -0.482349,0.038588 -0.655995,0.090038l-0.109332,0.032157l-0.045019,0.012863l0.109332,-0.68172c0.373017,-0.115764 0.630269,-0.160783 0.92611,-0.160783c0.68172,0 1.048305,0.308703 1.048305,0.893954c0,0.14792 0.012863,0.263684 -0.038588,0.604544l-0.167214,1.080462l-0.025725,0.19294l-0.019294,0.154352l-0.012863,0.102901l-0.019294,0.083607l0,0z" class="st4"/>
   <path stroke="null" fill="#003473" clip-rule="evenodd" fill-rule="evenodd" id="svg_15" d="m13.066178,12.393735c0.154352,0 0.366585,0.012863 0.598113,0.045019l0.115764,-0.701014c-0.231528,-0.032157 -0.527368,-0.064313 -0.713877,-0.064313c-0.887522,0 -1.183363,0.475918 -1.183363,1.041874c0,0.360154 0.173646,0.636701 0.591682,0.836072c0.321566,0.154352 0.379448,0.180077 0.379448,0.321566c0,0.186508 -0.167214,0.295841 -0.475918,0.295841c-0.237959,0 -0.456624,-0.038588 -0.713877,-0.122195l-0.090038,0.701014l0.019294,0.006431l0.14792,0.032157c0.045019,0.006431 0.115764,0.019294 0.205802,0.032157c0.186508,0.019294 0.347291,0.025725 0.450192,0.025725c0.881091,0 1.247676,-0.347291 1.247676,-1.016149c0,-0.418036 -0.199371,-0.662426 -0.598113,-0.848934c-0.334429,-0.154352 -0.373017,-0.173646 -0.373017,-0.315135c0,-0.14792 0.14792,-0.270115 0.392311,-0.270115l0,0z" class="st4"/>
   <path stroke="null" fill="#ffffff" clip-rule="evenodd" fill-rule="evenodd" id="svg_16" d="m22.282261,10.927394l-0.128626,0.810346c-0.282978,-0.141489 -0.48878,-0.199371 -0.713877,-0.199371c-0.591682,0 -1.009717,0.578819 -1.009717,1.402028c0,0.565956 0.282978,0.913248 0.746033,0.913248c0.199371,0 0.411605,-0.064313 0.675289,-0.19294l-0.141489,0.855366c-0.295841,0.077176 -0.482349,0.109332 -0.701014,0.109332c-0.855366,0 -1.389165,-0.617407 -1.389165,-1.614262c0,-1.337715 0.739602,-2.270256 1.794339,-2.270256c0.135058,0 0.257253,0.012863 0.353723,0.038588l0.327997,0.083607c0.09647,0.025725 0.115764,0.032157 0.186508,0.064313l0,0z" class="st3"/>
   <path stroke="null" fill="#ffffff" clip-rule="evenodd" fill-rule="evenodd" id="svg_17" d="m19.729026,11.480488c-0.025725,-0.006431 -0.051451,-0.006431 -0.083607,-0.006431c-0.263684,0 -0.411605,0.135058 -0.655995,0.495212l0.070745,-0.463055l-0.720308,0l-0.48878,3.042015l0.803915,0c0.282978,-1.858652 0.360154,-2.180218 0.739602,-2.180218c0.025725,0 0.025725,0 0.057882,0c0.070745,-0.366585 0.167214,-0.636701 0.302272,-0.881091l-0.025725,-0.006431l0,0z" class="st3"/>
   <path stroke="null" fill="#ffffff" clip-rule="evenodd" fill-rule="evenodd" id="svg_18" d="m15.143494,14.516071c-0.218665,0.070745 -0.385879,0.09647 -0.572388,0.09647c-0.405173,0 -0.630269,-0.237959 -0.630269,-0.668857c0,-0.083607 0.006431,-0.173646 0.025725,-0.270115l0.051451,-0.295841l0.038588,-0.237959l0.347291,-2.077317l0.791053,0l-0.090038,0.450192l0.405173,0l-0.109332,0.739602l-0.405173,0l-0.212234,1.26697c-0.006431,0.057882 -0.012863,0.09647 -0.012863,0.128626c0,0.154352 0.083607,0.225096 0.270115,0.225096c0.090038,0 0.160783,-0.006431 0.212234,-0.025725l-0.109332,0.668857l0,0z" class="st3"/>
   <path stroke="null" fill="#ffffff" clip-rule="evenodd" fill-rule="evenodd" id="svg_19" d="m12.082185,12.470911c0,0.385879 0.186508,0.649563 0.604544,0.848934c0.321566,0.154352 0.373017,0.199371 0.373017,0.334429c0,0.186508 -0.141489,0.276547 -0.456624,0.276547c-0.237959,0 -0.456624,-0.038588 -0.713877,-0.122195l-0.109332,0.701014l0.038588,0.006431l0.14792,0.032157c0.045019,0.006431 0.115764,0.019294 0.205802,0.025725c0.186508,0.019294 0.334429,0.025725 0.43733,0.025725c0.836072,0 1.228382,-0.321566 1.228382,-1.016149c0,-0.418036 -0.160783,-0.662426 -0.559525,-0.848934c-0.334429,-0.154352 -0.373017,-0.186508 -0.373017,-0.327997c0,-0.167214 0.135058,-0.250822 0.392311,-0.250822c0.154352,0 0.366585,0.019294 0.572388,0.045019l0.115764,-0.707445c-0.205802,-0.032157 -0.520937,-0.057882 -0.701014,-0.057882c-0.893954,0.006431 -1.202657,0.475918 -1.202657,1.035443l0,0z" class="st3"/>
   <path stroke="null" fill="#ffffff" clip-rule="evenodd" fill-rule="evenodd" id="svg_20" d="m28.359859,14.554659l-0.752465,0l0.038588,-0.295841c-0.218665,0.237959 -0.443761,0.34086 -0.733171,0.34086c-0.578819,0 -0.964698,-0.501643 -0.964698,-1.26697c0,-1.009717 0.591682,-1.865083 1.292696,-1.865083c0.308703,0 0.546662,0.128626 0.765327,0.418036l0.173646,-1.067599l0.784621,0l-0.604544,3.736598l0,0zm-1.1705,-0.720308c0.373017,0 0.630269,-0.424467 0.630269,-1.029011c0,-0.385879 -0.14792,-0.598113 -0.424467,-0.598113c-0.360154,0 -0.617407,0.424467 -0.617407,1.02258c0,0.405173 0.141489,0.604544 0.411605,0.604544l0,0z" class="st3"/>
   <path stroke="null" fill="#ffffff" clip-rule="evenodd" fill-rule="evenodd" id="svg_21" d="m17.574534,14.483915c-0.270115,0.083607 -0.5338,0.122195 -0.816778,0.122195c-0.887522,0 -1.350577,-0.469486 -1.350577,-1.36344c0,-1.048305 0.591682,-1.813633 1.389165,-1.813633c0.655995,0 1.074031,0.430899 1.074031,1.106187c0,0.225096 -0.025725,0.443761 -0.09647,0.752465l-1.582105,0c-0.006431,0.045019 -0.006431,0.070745 -0.006431,0.09647c0,0.353723 0.237959,0.5338 0.701014,0.5338c0.282978,0 0.540231,-0.057882 0.823209,-0.19294l-0.135058,0.758896l0,0zm-0.443761,-1.807201c0.006431,-0.064313 0.006431,-0.115764 0.006431,-0.154352c0,-0.24439 -0.141489,-0.392311 -0.379448,-0.392311c-0.250822,0 -0.43733,0.19294 -0.508074,0.546662l0.881091,0l0,0z" class="st3"/>
   <polygon stroke="null" fill="#ffffff" clip-rule="evenodd" fill-rule="evenodd" id="svg_22" points="9.065895088464913,14.554833706762679 8.268411513655565,14.554833706762679 8.725035038130272,11.673594768267435 7.708887726358967,14.554833706762679 7.162225176662901,14.554833706762679 7.097911587219073,11.692889831959405 6.615562626966835,14.554833706762679 5.87596078922752,14.554833706762679 6.493367300452974,10.811795630296615 7.6381427779707565,10.811795630296615 7.67029957269267,13.127082876556756 8.442057218295076,10.811795630296615 9.683302586549189,10.811795630296615 9.065895088464913,14.554833706762679 " class="st3"/>
   <path stroke="null" fill="#ffffff" clip-rule="evenodd" fill-rule="evenodd" id="svg_23" d="m11.027449,13.197651c-0.083607,-0.006431 -0.122195,-0.012863 -0.180077,-0.012863c-0.450192,0 -0.68172,0.154352 -0.68172,0.463055c0,0.186508 0.109332,0.308703 0.282978,0.308703c0.327997,0 0.565956,-0.308703 0.578819,-0.758896l0,0zm0.578819,1.357009l-0.662426,0l0.012863,-0.315135c-0.199371,0.250822 -0.469486,0.366585 -0.836072,0.366585c-0.430899,0 -0.726739,-0.34086 -0.726739,-0.82964c0,-0.739602 0.514506,-1.1705 1.395597,-1.1705c0.090038,0 0.205802,0.006431 0.321566,0.025725c0.025725,-0.102901 0.032157,-0.141489 0.032157,-0.199371c0,-0.199371 -0.141489,-0.276547 -0.508074,-0.276547c-0.225096,0 -0.482349,0.032157 -0.662426,0.083607l-0.109332,0.032157l-0.070745,0.019294l0.109332,-0.68172c0.398742,-0.115764 0.655995,-0.160783 0.951836,-0.160783c0.68172,0 1.048305,0.308703 1.048305,0.893954c0,0.14792 -0.012863,0.263684 -0.064313,0.604544l-0.167214,1.080462l-0.025725,0.19294l-0.019294,0.154352l-0.012863,0.102901l-0.006431,0.077176l0,0z" class="st3"/>
   <path stroke="null" fill="#ffffff" clip-rule="evenodd" fill-rule="evenodd" id="svg_24" d="m23.568525,13.197651c-0.083607,-0.006431 -0.122195,-0.012863 -0.180077,-0.012863c-0.450192,0 -0.68172,0.154352 -0.68172,0.463055c0,0.186508 0.109332,0.308703 0.282978,0.308703c0.334429,0 0.565956,-0.308703 0.578819,-0.758896l0,0zm0.578819,1.357009l-0.662426,0l0.012863,-0.315135c-0.199371,0.250822 -0.469486,0.366585 -0.836072,0.366585c-0.430899,0 -0.726739,-0.34086 -0.726739,-0.82964c0,-0.739602 0.514506,-1.1705 1.395597,-1.1705c0.090038,0 0.205802,0.006431 0.321566,0.025725c0.025725,-0.102901 0.032157,-0.141489 0.032157,-0.199371c0,-0.199371 -0.141489,-0.276547 -0.508074,-0.276547c-0.225096,0 -0.482349,0.032157 -0.662426,0.083607l-0.109332,0.032157l-0.070745,0.019294l0.109332,-0.68172c0.398742,-0.115764 0.655995,-0.160783 0.951836,-0.160783c0.68172,0 1.048305,0.308703 1.048305,0.893954c0,0.14792 -0.012863,0.263684 -0.064313,0.604544l-0.167214,1.080462l-0.025725,0.19294l-0.019294,0.154352l-0.012863,0.102901l-0.006431,0.077176l0,0z" class="st3"/>
   <path stroke="null" fill="#ffffff" clip-rule="evenodd" fill-rule="evenodd" id="svg_25" d="m26.282543,11.480488c-0.025725,-0.006431 -0.051451,-0.006431 -0.077176,-0.006431c-0.263684,0 -0.411605,0.135058 -0.655995,0.495212l0.070745,-0.463055l-0.720308,0l-0.482349,3.042015l0.797484,0c0.282978,-1.858652 0.360154,-2.180218 0.739602,-2.180218c0.025725,0 0.025725,0 0.057882,0c0.070745,-0.366585 0.167214,-0.636701 0.302272,-0.881091l-0.032157,-0.006431l0,0z" class="st3"/>
  </g>
 </g>
</svg>