<?xml version="1.0" encoding="utf-8"?>
<!-- Generator: Adobe Illustrator 24.1.1, SVG Export Plug-In . SVG Version: 6.00 Build 0)  -->
<svg version="1.1" id="Layer_1" xmlns="http://www.w3.org/2000/svg" xmlns:xlink="http://www.w3.org/1999/xlink" x="0px" y="0px"
	 viewBox="0 0 612 792" style="enable-background:new 0 0 612 792;" xml:space="preserve">
<style type="text/css">
	.st0{fill-rule:evenodd;clip-rule:evenodd;fill:#0A871F;}
</style>
<path id="cart-copy" class="st0" d="M509,700.5H104.9l-67-291.3H576L509,700.5z M239.4,571.8c18.5,0,33.5,14.4,33.5,32.2
	c0,17.8-15,32.2-33.5,32.2s-33.5-14.4-33.5-32.2C205.9,586.2,220.9,571.8,239.4,571.8z M374.5,571.8c18.5,0,33.5,14.4,33.5,32.2
	c0,17.8-15,32.2-33.5,32.2S341,621.7,341,603.9C341,586.2,356,571.8,374.5,571.8z M172.5,474.5c18.5,0,33.5,14.4,33.5,32.2
	s-15,32.2-33.5,32.2S139,524.5,139,506.7C139,488.9,154,474.5,172.5,474.5L172.5,474.5z M306.9,474.5c18.8,0,34.1,14.4,34.1,32.2
	s-15.3,32.2-34.1,32.2s-34.1-14.4-34.1-32.2C272.8,488.9,288.1,474.5,306.9,474.5L306.9,474.5z M441.4,474.5
	c18.5,0,33.5,14.4,33.5,32.2s-15,32.2-33.5,32.2c-18.5,0-33.5-14.4-33.5-32.2C408,488.9,422.9,474.5,441.4,474.5L441.4,474.5z
	 M381.7,150.3c-23.2-4.4-40.7-24.1-40.7-47.7c0-26.8,22.6-48.6,50.5-48.6s50.5,21.8,50.5,48.6c0,11.7-4.3,22.4-11.5,30.8
	l118.2,117.4c35.2,8.7,61.3,40.5,61.3,78.4v48H3.9v-48c0-37.9,26.1-69.7,61.3-78.4l118.2-117.3c-7.2-8.4-11.5-19.2-11.5-30.9
	c0-26.8,22.6-48.6,50.5-48.6s50.5,21.8,50.5,48.6c0,23.6-17.5,43.4-40.8,47.7l-98.8,98.1h347.5L381.7,150.3L381.7,150.3z"/>
</svg>
