<?xml version="1.0" encoding="utf-8"?>
<!-- Generator: Adobe Illustrator 24.1.1, SVG Export Plug-In . SVG Version: 6.00 Build 0)  -->
<svg version="1.1" id="Layer_1" xmlns="http://www.w3.org/2000/svg" xmlns:xlink="http://www.w3.org/1999/xlink" x="0px" y="0px"
	 viewBox="0 0 612 792" style="enable-background:new 0 0 612 792;" xml:space="preserve">
<style type="text/css">
	.st0{fill-rule:evenodd;clip-rule:evenodd;fill:#2E8BC5;}
</style>
<path id="minifig_copy" class="st0" d="M173.8,184v-32.6c0-36.1,29.1-65.2,65.2-65.2h130.6c36.1,0,65.2,29.1,65.2,65.2V184h98
	c36.1,0,65.2,29.1,65.2,65.2v326.4c0,36.1-29.1,65.2-65.2,65.2h-65.4v64.7H141.2v-64.7H75.8c-36.1,0-65.2-29.1-65.2-65.2V249.2
	c0-36.1,29.1-65.2,65.2-65.2L173.8,184L173.8,184z M435,445H173.8c0,54.2,43.8,98,98,98H337C426.6,542.8,434.8,447.4,435,445z
	 M466.5,386.6c0.2-2.4,0.4-4.8,0.4-7.1c0-36.1-29.1-65.4-64.8-65.4s-64.8,29.3-64.8,65.4c0,2.9,0.2,5.9,0.5,8.8
	c4.6-23.8,31.9-42.1,64.5-42.1C434.3,346.1,461,363.5,466.5,386.6z M142.1,387.1c-0.4-2.6-0.4-5.1-0.4-7.7
	c0-36.1,29.1-65.4,64.8-65.4s64.8,29.3,64.8,65.4c0,2.7-0.2,5.5-0.5,8.2c-4.9-23.4-31.9-41.6-64.5-41.6
	C174.2,346.1,147.4,363.9,142.1,387.1L142.1,387.1z"/>
</svg>
