<?xml version="1.0" encoding="utf-8"?>
<!-- Generator: Adobe Illustrator 24.1.1, SVG Export Plug-In . SVG Version: 6.00 Build 0)  -->
<svg version="1.1" id="Layer_1" xmlns="http://www.w3.org/2000/svg" xmlns:xlink="http://www.w3.org/1999/xlink" x="0px" y="0px"
	 viewBox="0 0 612 792" style="enable-background:new 0 0 612 792;" xml:space="preserve">
<style type="text/css">
	.st0{fill-rule:evenodd;clip-rule:evenodd;fill:#D70000;}
</style>
<path id="brick" class="st0" d="M573.9,275.9C595,276,612,293,612,314v266.4c0,21-17.1,38.1-38.1,38.1H41.1
	c-21,0-38.1-17.1-38.1-38.1V314c0-21,17-38,38.1-38.1H573.9z M231.4,161.8c21,0,38.1,17.1,38.1,38.1v38.1H79.1v-38.1
	c0-21,17-38,38.1-38.1H231.4z M497.8,161.8c21,0,38.1,17.1,38.1,38.1v38.1H345.6v-38.1c0-21,17-38,38.1-38.1H497.8z"/>
</svg>
