<svg width="150" height="45" xmlns="http://www.w3.org/2000/svg">
 <title/>

 <g>
  <title>background</title>
  <rect fill="none" id="canvas_background" height="47" width="152" y="-1" x="-1"/>
 </g>
 <g>
  <title>Layer 1</title>
  <path id="pal" fill="#306FC5" d="m145.254193,4.680988l-4.20037,0c-0.00237,0 -0.00474,0.00077 -0.00632,0.00077l-0.00237,-0.00077c-0.96148,0 -1.93717,0.71709 -2.20951,1.62939c-0.01105,0.03689 -0.03,0.07225 -0.03868,0.11068c0,0 -0.10026,0.445 -0.27392,1.21435l-5.76969,25.46304c-0.13341,0.57567 -0.22261,0.95073 -0.24945,1.04834l0.01105,0.01384c-0.19972,0.89001 0.3497,1.62631 1.25198,1.70855l0.01184,0.01691l4.35983,0c0.95517,0 1.92455,-0.71017 2.20557,-1.61094c0.01342,-0.04381 0.03474,-0.08455 0.045,-0.12836l6.29385,-27.72727l-0.00948,-0.00308c0.21393,-0.94842 -0.41364,-1.73545 -1.41933,-1.73545zm-21.54478,25.02549c-0.58257,0.35739 -1.1983,0.66329 -1.84323,0.92383c-0.86676,0.34049 -1.68852,0.5188 -2.44871,0.5188c-1.16672,0 -2.06348,-0.16064 -2.66973,-0.50419c-0.60705,-0.32588 -0.92518,-0.89232 -0.91491,-1.70317c0,-0.93613 0.22182,-1.66244 0.68125,-2.23196c0.46258,-0.548 1.15014,-0.98916 2.00269,-1.31811c0.84781,-0.27977 1.8906,-0.51034 3.09443,-0.67559c1.07042,-0.13142 3.18679,-0.36891 3.45755,-0.37045c0.27076,-0.00231 0.45075,-0.14757 0.32997,0.55491c-0.05368,0.30513 -0.66467,2.74768 -0.94491,3.85827c-0.0813,0.3328 -0.536,0.81777 -0.7444,0.94766c0,0 0.2084,-0.12989 0,0zm8.30602,-17.16699c-1.78245,-0.96841 -4.5706,-1.458 -8.38575,-1.458c-1.88665,0 -3.78278,0.14757 -5.68522,0.43502c-1.39644,0.20828 -1.54011,0.24287 -2.40766,0.42656c-1.78482,0.37814 -2.06032,2.11821 -2.06032,2.11821l-0.5731,2.29497c-0.32523,1.46799 0.53363,1.40727 0.91649,1.29352c0.77913,-0.22903 1.20146,-0.45653 2.7913,-0.807c1.51959,-0.33587 3.12522,-0.5872 4.40641,-0.57721c1.87876,0 3.30756,0.2006 4.2572,0.58643c0.95044,0.4035 1.42092,1.09061 1.42092,2.07363c0.00315,0.23364 0.00947,0.45423 -0.07736,0.64714c-0.07816,0.17985 -0.22814,0.35355 -0.67731,0.41273c-2.68157,0.15525 -4.60612,0.39351 -6.92378,0.72246c-2.28688,0.31358 -4.288,0.85082 -5.96073,1.5948c-1.78324,0.77012 -3.11732,1.80079 -4.03696,3.1066c-0.89518,1.31197 -1.34513,2.90062 -1.3475,4.77211c0,1.76851 0.65283,3.21113 1.91586,4.33095c1.27803,1.10522 2.9405,1.65245 4.95188,1.65245c1.25671,-0.00846 2.2403,-0.09685 2.94523,-0.26824c0.69783,-0.17139 1.4588,-0.41503 2.26241,-0.75398c0.60073,-0.2444 1.24882,-0.59795 1.93323,-1.04142c0.68519,-0.44501 1.15962,-0.76089 1.76824,-1.14903l0.02211,0.03689l-0.1713,0.73554c-0.00079,0.00691 -0.01106,0.01076 -0.01106,0.01767l0.00553,0.01384c-0.19577,0.88617 0.35128,1.62324 1.25277,1.71009l0.01105,0.01537l0.07973,0l0.00316,0.00384c0.59836,0 2.65237,-0.00077 3.61227,-0.00384l0.6702,0c0.0442,0 0.04894,-0.01307 0.06631,-0.02306c0.92043,-0.10991 1.80298,-0.84006 2.01059,-1.71624l3.42834,-14.40702c0.07894,-0.33894 0.1413,-0.73015 0.17841,-1.18054c0.04262,-0.455 0.09314,-0.8293 0.07814,-1.09984c0.0079,-2.03904 -0.89201,-3.54622 -2.66973,-4.5154l0,0zm-20.64447,-3.28161c-0.58494,-1.10829 -1.46828,-2.00061 -2.58527,-2.69541c-1.14542,-0.69325 -2.50633,-1.17669 -4.08196,-1.45876c-1.55827,-0.26593 -3.41098,-0.41811 -5.52183,-0.42272l-9.82165,0.00461c-1.01122,0.01691 -2.00349,0.7901 -2.23715,1.74237l-6.60329,27.97784c-0.24076,0.95073 0.41601,1.74313 1.40907,1.73775l4.71269,-0.00845c0.99938,0.00845 2.0177,-0.77857 2.25372,-1.7293l1.593,-6.78964c0.2234,-0.9515 1.23936,-1.74851 2.25531,-1.73468l1.3396,0c5.74838,0 10.2053,-1.1498 13.39683,-3.43863c3.18363,-2.30035 4.7861,-5.3178 4.7861,-9.07077c-0.01026,-1.63861 -0.29681,-3.01898 -0.89517,-4.11421zm-10.13268,9.15071c-1.4067,0.99608 -3.38098,1.49566 -5.92126,1.49566l-1.1683,0c-1.01043,0.01153 -1.66326,-0.78395 -1.42328,-1.73776l1.40828,-5.93805c0.20998,-0.9392 1.2354,-1.73852 2.23162,-1.73084l1.54327,-0.00768c1.8014,0.00768 3.1489,0.30128 4.0796,0.88463c0.9149,0.59027 1.35854,1.50565 1.36565,2.72538c0.00395,1.8592 -0.70256,3.28952 -2.11558,4.30866"/>
  <path id="pay" fill="#265697" d="m78.325183,11.081618c-0.89432,0 -2.06732,0.70891 -2.62258,1.56565c0,0 -5.98222,10.04576 -6.56978,11.04965c-0.31939,0.53977 -0.643,0.19666 -0.69706,-0.00412c-0.04352,-0.2441 -1.85391,-10.97952 -1.85391,-10.97952c-0.20357,-0.8643 -1.12526,-1.60622 -2.27791,-1.60278l-3.73029,0.0055c-0.89923,0 -1.4601,0.70547 -1.26004,1.55809c0,0 2.85142,15.83118 3.40738,19.55451c0.27728,2.05935 -0.02878,2.42446 -0.02878,2.42446l-3.69659,6.3135c-0.54123,0.85605 -0.24499,1.5574 0.65002,1.5574l4.32276,-0.00344c0.89502,0 2.08065,-0.69791 2.61345,-1.55534l16.62977,-27.54986c0,0 1.59067,-2.35364 0.12355,-2.3337c-1.00032,0.01375 -5.00999,0 -5.00999,0zm-31.22154,18.62486c-0.58258,0.35739 -1.19751,0.66175 -1.84245,0.92307c-0.86676,0.33894 -1.69246,0.51879 -2.45028,0.51879c-1.16357,0 -2.06269,-0.1614 -2.66974,-0.50342c-0.60625,-0.32665 -0.92596,-0.89309 -0.9157,-1.70471c0,-0.93383 0.22419,-1.66244 0.68283,-2.23119c0.46338,-0.54876 1.14778,-0.9907 2.00033,-1.31888c0.85018,-0.2813 1.89613,-0.5088 3.09601,-0.67405c1.07042,-0.13142 3.18915,-0.36814 3.45913,-0.37199c0.26839,-0.00077 0.44916,-0.14757 0.32839,0.55492c-0.0521,0.30512 -0.66389,2.74921 -0.94412,3.85903c-0.08447,0.33434 -0.53916,0.81931 -0.7444,0.94843c0,0 0.20524,-0.12912 0,0zm8.30602,-17.16776c-1.78246,-0.96841 -4.56981,-1.45723 -8.38496,-1.45723c-1.88745,0 -3.78278,0.14603 -5.68602,0.43425c-1.3988,0.20675 -1.53932,0.2421 -2.40765,0.42579c-1.78561,0.37968 -2.06032,2.11821 -2.06032,2.11821l-0.5731,2.29651c-0.32444,1.46722 0.53521,1.40651 0.91648,1.29276c0.77756,-0.22904 1.20225,-0.45577 2.7921,-0.80778c1.51721,-0.33433 3.12521,-0.58489 4.40482,-0.57644c1.88034,0 3.30757,0.19983 4.25721,0.58566c0.95122,0.40351 1.41933,1.09215 1.41933,2.0744c0.00632,0.23365 0.01105,0.455 -0.07341,0.64637c-0.07973,0.18139 -0.23129,0.35432 -0.68046,0.41273c-2.67842,0.15756 -4.60217,0.39505 -6.92379,0.724c-2.28687,0.31358 -4.2872,0.85082 -5.96072,1.59404c-1.78324,0.77011 -3.11574,1.80232 -4.03381,3.10736c-0.89833,1.3112 -1.3475,2.89985 -1.34908,4.77211c0,1.76774 0.65362,3.21113 1.91508,4.33018c1.27882,1.10522 2.93971,1.65322 4.95108,1.65322c1.25751,-0.00846 2.24031,-0.09838 2.94761,-0.26824c0.69703,-0.17293 1.4588,-0.41503 2.25925,-0.75398c0.60309,-0.2444 1.24961,-0.59949 1.9348,-1.04219c0.68362,-0.44424 1.16041,-0.76012 1.77141,-1.14826l0.01894,0.03613l-0.1713,0.73476c-0.00158,0.00692 -0.01105,0.01153 -0.01105,0.01998l0.00711,0.01153c-0.19577,0.88848 0.3497,1.62478 1.25198,1.71009l0.01105,0.01691l0.07894,0l0.00237,0.00538c0.59994,0 2.65473,-0.00308 3.61227,-0.00538l0.67098,0c0.045,0 0.05132,-0.0146 0.06552,-0.02383c0.92281,-0.11298 1.80219,-0.84159 2.01217,-1.7147l3.42835,-14.40856c0.07736,-0.33817 0.14051,-0.72938 0.17524,-1.179c0.04579,-0.45731 0.09552,-0.83007 0.0821,-1.09984c0.00789,-2.04058 -0.8936,-3.54776 -2.67052,-4.51694zm-21.44454,-3.28084c-0.58494,-1.10829 -1.46828,-2.00061 -2.58527,-2.69541c-1.14541,-0.69325 -2.50633,-1.17669 -4.08196,-1.45876c-1.55827,-0.26593 -3.41098,-0.41811 -5.52182,-0.42272l-9.82166,0.00461c-1.01121,0.01691 -2.00348,0.7901 -2.23714,1.74237l-6.6033,27.97784c-0.24076,0.95073 0.41602,1.74313 1.40907,1.73775l4.71269,-0.00845c0.99938,0.00845 2.0177,-0.77857 2.25373,-1.7293l1.593,-6.78964c0.2234,-0.9515 1.23935,-1.74851 2.2553,-1.73468l1.3396,0c5.74838,0 10.20531,-1.1498 13.39683,-3.43863c3.18363,-2.30035 4.7861,-5.3178 4.7861,-9.07077c-0.01026,-1.63861 -0.29681,-3.01898 -0.89517,-4.11421zm-10.13268,9.15071c-1.4067,0.99608 -3.38098,1.49566 -5.92125,1.49566l-1.16831,0c-1.01042,0.01153 -1.66325,-0.78395 -1.42328,-1.73776l1.40828,-5.93805c0.20998,-0.9392 1.23541,-1.73852 2.23163,-1.73084l1.54326,-0.00768c1.8014,0.00768 3.1489,0.30128 4.0796,0.88463c0.91491,0.59027 1.35855,1.50565 1.36565,2.72538c0.00395,1.8592 -0.70256,3.28952 -2.11558,4.30866"/>
 </g>
</svg>