<?xml version="1.0" encoding="utf-8"?>
<!-- Generator: Adobe Illustrator 24.1.1, SVG Export Plug-In . SVG Version: 6.00 Build 0)  -->
<svg version="1.1" id="Layer_1" xmlns="http://www.w3.org/2000/svg" xmlns:xlink="http://www.w3.org/1999/xlink" x="0px" y="0px"
	 viewBox="0 0 612 792" style="enable-background:new 0 0 612 792;" xml:space="preserve">
<path d="M531.7,499.8l70.6-226.1c3.5-10.9,0.9-16.7-2-21.1c-7.3-11.1-22.3-10.8-25.3-10.8l-398.9,0.1l-10.6-57.7
	c-2.9-12.8-11.4-28.3-28.5-28.3H24.9c-11.6,0-16,12.4-16,24.2v31.4c0,11.3,4.3,7.7,16.4,7.7h94.7l72.4,334.9
	c-11.5,13.1-17.8,33.9-17.8,51.8c0,39.3,29,73.1,66.1,73.1c35,0,61.3-37.9,65.6-59h141.1c4.3,21.1,25.5,60.6,65.5,60.6
	c36.4,0,66.1-32.4,66.1-71.6c0-39.1-22-76.1-65.7-76.1c-18.2,0-39.7,2.8-49.8,23.9H290.2c-12.6-21.1-29.8-27.7-47.1-28.4l-2.4-13.8
	h263.8C524.3,514.6,528.2,510.1,531.7,499.8z M215.1,609.9c0-15,11.3-27.1,25.2-27.1c13.8,0,25.1,12.2,25.1,27.1
	S254.1,637,240.2,637C226.3,637,215.1,624.8,215.1,609.9z M513.4,636.6c-13.7,0-24.9-12-24.9-26.8s11.1-26.8,24.9-26.8
	c13.7,0,24.9,12,24.9,26.8C538.3,624.6,527.1,636.6,513.4,636.6z"/>
</svg>
