<?xml version="1.0" encoding="utf-8"?>
<!-- Generator: Adobe Illustrator 24.1.1, SVG Export Plug-In . SVG Version: 6.00 Build 0)  -->
<svg version="1.1" id="Layer_1" xmlns="http://www.w3.org/2000/svg" xmlns:xlink="http://www.w3.org/1999/xlink" x="0px" y="0px"
	 viewBox="0 0 612 792" style="enable-background:new 0 0 612 792;" xml:space="preserve">
<style type="text/css">
	.st0{fill:#2E8BC5;stroke:#FFFFFF;stroke-width:1.341;stroke-miterlimit:10;}
	.st1{fill:none;}
	.st2{fill:#FFFFFF;}
	.st3{font-family:'Montserrat-Regular';}
	.st4{font-size:229.3047px;}
</style>
<path d="M500.3,490.7l66.6-185.8c3.3-9,0.8-13.7-1.9-17.3c-6.9-9.1-21-8.9-23.9-8.9L165,278.7l-10-47.4
	c-2.7-10.5-10.7-23.3-26.9-23.3H22.5c-10.9,0-15.1,10.2-15.1,19.9v25.8c0,9.3,4.1,6.3,15.5,6.3h89.3l68.3,275.3
	c-10.8,10.8-16.8,27.9-16.8,42.6c0,32.3,27.3,60.1,62.3,60.1c33,0,57.8-31.2,61.9-48.5h133c4.1,17.3,24,49.8,61.8,49.8
	c34.3,0,62.3-26.6,62.3-58.8c0-32.1-20.7-62.5-62-62.5c-17.2,0-37.4,2.3-47,19.6H272.6c-11.9-17.3-28.1-22.8-44.4-23.3l-2.3-11.3
	h248.7C493.4,502.8,497,499.1,500.3,490.7z M201.8,581.2c0-12.3,10.7-22.3,23.8-22.3c13,0,23.7,10,23.7,22.3s-10.7,22.3-23.8,22.3
	S201.8,593.4,201.8,581.2z M483.1,603.1c-12.9,0-23.5-9.9-23.5-22s10.5-22,23.5-22c12.9,0,23.5,9.9,23.5,22
	C506.6,593.2,496,603.1,483.1,603.1z"/>
<circle class="st0" cx="420" cy="226.2" r="191.8"/>
<rect x="304.6" y="135.6" class="st1" width="328.5" height="260.1"/>
<text transform="matrix(1 0 0 1 304.6394 305.7354)" class="st2 st3 st4">10</text>
</svg>
