<svg width="35" height="25" xmlns="http://www.w3.org/2000/svg">

 <g>
  <title>background</title>
  <rect fill="none" id="canvas_background" height="27" width="37" y="-1" x="-1"/>
 </g>
 <g>
  <title>Layer 1</title>
  <path id="svg_2" fill-rule="evenodd" fill="#ECF0F1" d="m31.694042,2.244669l-28,0c-1.1,0 -2,0.9 -2,2l0,17c0,1.1 0.9,2 2,2l28,0c1.1,0 2,-0.9 2,-2l0,-17c0,-1.1 -0.9,-2 -2,-2z" clip-rule="evenodd"/>
  <path id="svg_4" fill-rule="evenodd" fill="#34495E" d="m31.694042,2.244669l-28,0c-1.1,0 -2,0.9 -2,2l0,2l32,0l0,-2c0,-1.1 -0.9,-2 -2,-2z" clip-rule="evenodd"/>
  <path id="svg_6" fill-rule="evenodd" fill="#F1C40F" d="m1.694042,19.244669l0,2c0,1.1 0.9,2 2,2l28,0c1.1,0 2,-0.9 2,-2l0,-2l-32,0z" clip-rule="evenodd"/>
  <path id="svg_8" fill-rule="evenodd" fill="#34495E" d="m20.194042,11.944669c-0.7,-0.4 -1.1,-0.6 -1.1,-1c0,-0.3 0.4,-0.7 1.1,-0.7c0.6,0 1.1,0.1 1.5,0.3l0.2,0.1l0.3,-1.7c-0.4,-0.2 -1,-0.3 -1.7,-0.3c-1.9,0 -3.3,1.1 -3.3,2.6c0,1.1 1,1.7 1.7,2.1c0.8,0.4 1,0.6 1,1c0,0.5 -0.6,0.8 -1.2,0.8c-0.8,0 -1.2,-0.1 -1.8,-0.4l-0.3,-0.1l-0.3,1.7c0.5,0.2 1.3,0.4 2.2,0.4c2,0 3.4,-1 3.4,-2.6c0,-1 -0.5,-1.7 -1.7,-2.2zm6.9,-3.1l-1.5,0c-0.5,0 -0.8,0.1 -1,0.6l-2.9,7.1l2,0c0,0 0.3,-1 0.4,-1.2c0.2,0 2.2,0 2.5,0c0.1,0.3 0.2,1.2 0.2,1.2l1.9,0l-1.6,-7.7zm-2.4,5c0.2,-0.4 0.8,-2.2 0.8,-2.2c0,0 0.2,-0.4 0.3,-0.7l0.1,0.7c0,0 0.4,1.8 0.4,2.2l-1.6,0zm-11.5,2.7l1.9,0l1.2,-7.7l-1.9,0l-1.2,7.7zm-1.7,-7.7l-1.9,5.3l-0.2,-1.1c-0.4,-1.2 -1.5,-2.6 -2.7,-3.3l1.7,6.8l2.1,0l3.1,-7.7l-2.1,0z" clip-rule="evenodd"/>
  <path id="svg_10" fill-rule="evenodd" fill="#F1C40F" d="m8.694042,9.444669c-0.1,-0.5 -0.5,-0.6 -0.9,-0.7l-3.1,0l0,0.2c2.4,0.6 4.1,2.2 4.7,4.1l-0.7,-3.6z" clip-rule="evenodd"/>
 </g>
</svg>