<svg xmlns="http://www.w3.org/2000/svg" viewBox="0 0 128 128"><defs><style>.cls-1{fill:#fff;}</style></defs><title>Google+</title><g id="Layer_2" data-name="Layer 2"><g id="Circle_Grey" data-name="Circle Grey"><g id="Google_" data-name="Google+"><circle id="back" class="cls-1" cx="64" cy="64" r="64"/><g id="Google_2" data-name="Google+"><path class="cls-1" d="M28.17,64C27.73,52.29,38,41.44,49.77,41.29a22.75,22.75,0,0,1,16.35,5.62c-1.86,2-3.75,4.06-5.77,6-4-2.42-8.8-4.27-13.46-2.63-7.53,2.14-12.08,11-9.3,18.39,2.3,7.68,11.66,11.9,19,8.67,3.8-1.35,6.3-4.86,7.4-8.62-4.35-.08-8.7,0-13-.15,0-2.59,0-5.16,0-7.75,7.25,0,14.52,0,21.78,0,.44,6.34-.49,13.12-4.61,18.21-5.64,7.27-16.07,9.4-24.55,6.55A22.77,22.77,0,0,1,28.17,64"/><path class="cls-1" d="M86.82,54.24h6.47q0,3.25,0,6.51l6.5,0v6.48l-6.5,0q0,3.26,0,6.51c-2.16,0-4.33,0-6.48,0,0-2.17,0-4.34,0-6.5l-6.5,0V60.79l6.5,0q0-3.26,0-6.51"/></g></g></g></g></svg>