<svg xmlns="http://www.w3.org/2000/svg" viewBox="0 0 128 128"><defs><style>.cls-1{fill:#fff;}</style></defs><title>Twitter</title><g id="Layer_2" data-name="Layer 2"><g id="Circle_Grey" data-name="Circle Grey"><g id="Twitter"><circle id="back" class="cls-1" cx="64" cy="64" r="64"/><path id="Twitter-2" data-name="Twitter" class="cls-1" d="M99.84,41.77a29.54,29.54,0,0,1-8.45,2.32A14.81,14.81,0,0,0,97.86,36a29.58,29.58,0,0,1-9.34,3.57A14.71,14.71,0,0,0,63.08,49.58a14.83,14.83,0,0,0,.38,3.35A41.75,41.75,0,0,1,33.15,37.57a14.56,14.56,0,0,0-2,7.39A14.72,14.72,0,0,0,37.7,57.2,14.7,14.7,0,0,1,31,55.36v.18A14.71,14.71,0,0,0,42.84,70a14.65,14.65,0,0,1-3.88.52,14.87,14.87,0,0,1-2.77-.26A14.74,14.74,0,0,0,49.93,80.43a29.51,29.51,0,0,1-18.26,6.29,29,29,0,0,1-3.51-.2A41.66,41.66,0,0,0,50.7,93.13c27.05,0,41.84-22.41,41.84-41.85,0-.63,0-1.27,0-1.9A29.84,29.84,0,0,0,99.84,41.77Z"/></g></g></g></svg>